<svg xmlns="http://www.w3.org/2000/svg" xmlns:xlink="http://www.w3.org/1999/xlink" width="1366" zoomAndPan="magnify" viewBox="0 0 1024.5 576" height="768" preserveAspectRatio="xMidYMid meet" version="1.0"><defs><g/><clipPath id="57a81e4d5d"><path d="M 0.699219 0.359375 L 929.527344 0.359375 L 929.527344 301 L 0.699219 301 Z M 0.699219 0.359375 " clip-rule="nonzero"/></clipPath><clipPath id="66390f5e12"><rect x="0" width="930" y="0" height="301"/></clipPath><clipPath id="182d5e9002"><path d="M 188 218 L 812 218 L 812 492.839844 L 188 492.839844 Z M 188 218 " clip-rule="nonzero"/></clipPath><clipPath id="04f34fb5bf"><path d="M 0.527344 12 L 156 12 L 156 218 L 0.527344 218 Z M 0.527344 12 " clip-rule="nonzero"/></clipPath><clipPath id="939ee2fe7a"><rect x="0" width="624" y="0" height="275"/></clipPath><clipPath id="1a0138e0a1"><rect x="0" width="930" y="0" height="493"/></clipPath></defs><g transform="matrix(1, 0, 0, 1, 42, 42)"><g clip-path="url(#1a0138e0a1)"><g clip-path="url(#57a81e4d5d)"><g transform="matrix(1, 0, 0, 1, 0, -0.000000000000063949)"><g clip-path="url(#66390f5e12)"><g fill="#f7f2e8" fill-opacity="1"><g transform="translate(23.63472, 215.454953)"><g><path d="M -21.640625 -163.6875 C -21.804688 -165.425781 -20.628906 -166.988281 -18.109375 -168.375 C -15.597656 -169.769531 -12.773438 -170.945312 -9.640625 -171.90625 C -6.515625 -172.863281 -4.171875 -173.515625 -2.609375 -173.859375 L 55.265625 -184.015625 C 56.304688 -184.191406 57 -184.890625 57.34375 -186.109375 C 59.257812 -191.148438 60.691406 -195.320312 61.640625 -198.625 C 62.597656 -201.925781 63.6875 -205.050781 64.90625 -208 C 66.644531 -211.820312 68.726562 -213.734375 71.15625 -213.734375 C 72.894531 -213.734375 74.585938 -212.992188 76.234375 -211.515625 C 77.890625 -210.046875 78.976562 -208.265625 79.5 -206.171875 L 78.984375 -205.390625 C 78.984375 -201.921875 78.328125 -199.488281 77.015625 -198.09375 C 75.710938 -196.707031 74.890625 -195.664062 74.546875 -194.96875 C 74.203125 -194.269531 73.59375 -192.960938 72.71875 -191.046875 C 71.851562 -189.140625 71.25 -187.492188 70.90625 -186.109375 C 78.894531 -186.109375 87.273438 -186.582031 96.046875 -187.53125 C 104.828125 -188.488281 113.472656 -189.398438 121.984375 -190.265625 C 130.503906 -191.140625 138.066406 -191.578125 144.671875 -191.578125 C 146.578125 -191.578125 148.441406 -191.578125 150.265625 -191.578125 C 152.085938 -191.578125 153.867188 -191.492188 155.609375 -191.328125 C 160.304688 -190.972656 163.648438 -189.96875 165.640625 -188.3125 C 167.640625 -186.664062 168.816406 -185.0625 169.171875 -183.5 L 169.171875 -183.234375 C 169.515625 -181.503906 169.25 -180.070312 168.375 -178.9375 C 167.507812 -177.8125 166.296875 -177.25 164.734375 -177.25 C 164.210938 -177.25 163.601562 -177.421875 162.90625 -177.765625 C 159.601562 -178.640625 156.039062 -179.207031 152.21875 -179.46875 C 148.394531 -179.726562 144.3125 -179.859375 139.96875 -179.859375 C 132.15625 -179.859375 123.945312 -179.421875 115.34375 -178.546875 C 106.738281 -177.679688 98.523438 -176.726562 90.703125 -175.6875 C 82.890625 -174.644531 76.023438 -173.773438 70.109375 -173.078125 C 67.859375 -172.722656 66.210938 -171.332031 65.171875 -168.90625 C 63.953125 -165.082031 62.425781 -160.347656 60.59375 -154.703125 C 58.769531 -149.054688 56.859375 -143.144531 54.859375 -136.96875 C 52.867188 -130.800781 51.046875 -124.9375 49.390625 -119.375 C 47.742188 -113.820312 46.660156 -109.304688 46.140625 -105.828125 C 43.359375 -89.316406 40.269531 -73.066406 36.875 -57.078125 C 33.488281 -41.097656 29.882812 -25.113281 26.0625 -9.125 C 25.363281 -6.164062 24.453125 -4.078125 23.328125 -2.859375 C 22.203125 -1.648438 20.941406 -1.046875 19.546875 -1.046875 C 18.328125 -1.046875 16.976562 -1.695312 15.5 -3 C 14.03125 -4.300781 13.035156 -6.082031 12.515625 -8.34375 L 12.25 -9.125 C 12.070312 -9.988281 11.984375 -10.851562 11.984375 -11.71875 C 11.984375 -12.59375 12.070312 -13.378906 12.25 -14.078125 C 13.988281 -27.285156 15.941406 -39.363281 18.109375 -50.3125 C 20.285156 -61.257812 22.765625 -71.769531 25.546875 -81.84375 C 28.328125 -91.925781 31.191406 -102.09375 34.140625 -112.34375 C 35.179688 -116.34375 36.050781 -121.296875 36.75 -127.203125 C 37.445312 -133.109375 37.359375 -138.234375 36.484375 -142.578125 L 35.96875 -145.703125 C 34.925781 -150.742188 33.1875 -154.476562 30.75 -156.90625 C 28.320312 -159.34375 24.847656 -160.910156 20.328125 -161.609375 C 19.285156 -161.953125 18.242188 -162.125 17.203125 -162.125 C 16.160156 -162.125 15.117188 -162.125 14.078125 -162.125 C 8.691406 -162.125 3.652344 -161.296875 -1.03125 -159.640625 C -5.726562 -157.992188 -9.726562 -157.171875 -13.03125 -157.171875 C -16.675781 -157.171875 -19.195312 -158.738281 -20.59375 -161.875 C -21.289062 -162.394531 -21.640625 -163 -21.640625 -163.6875 Z M 33.625 -167.859375 C 33.800781 -167.691406 34.0625 -167.472656 34.40625 -167.203125 C 34.75 -166.941406 35.007812 -166.640625 35.1875 -166.296875 C 38.664062 -163.347656 41.226562 -160.613281 42.875 -158.09375 C 44.53125 -155.570312 45.703125 -153.441406 46.390625 -151.703125 C 48.484375 -157.785156 50.394531 -164.039062 52.125 -170.46875 C 51.082031 -170.46875 49.128906 -170.25 46.265625 -169.8125 C 43.398438 -169.382812 40.707031 -168.992188 38.1875 -168.640625 C 35.664062 -168.296875 34.144531 -168.035156 33.625 -167.859375 Z M 33.625 -167.859375 "/></g></g></g><g fill="#f7f2e8" fill-opacity="1"><g transform="translate(114.080658, 215.454953)"><g><path d="M 21.640625 -122.515625 C 23.546875 -124.597656 25.929688 -125.640625 28.796875 -125.640625 C 31.671875 -125.640625 34.582031 -124.421875 37.53125 -121.984375 C 41.707031 -118.160156 45.3125 -115.597656 48.34375 -114.296875 C 51.382812 -112.992188 54.035156 -112.34375 56.296875 -112.34375 C 59.078125 -112.34375 61.289062 -112.945312 62.9375 -114.15625 C 64.59375 -115.375 65.859375 -116.507812 66.734375 -117.5625 C 67.941406 -119.289062 69.675781 -119.675781 71.9375 -118.71875 C 74.195312 -117.769531 75.976562 -116.253906 77.28125 -114.171875 C 78.582031 -112.085938 78.453125 -110 76.890625 -107.90625 C 71.503906 -103.039062 65.160156 -100.609375 57.859375 -100.609375 C 49.691406 -100.609375 41.09375 -104.085938 32.0625 -111.046875 C 31.363281 -111.734375 30.445312 -111.46875 29.3125 -110.25 C 28.1875 -109.039062 27.191406 -107.566406 26.328125 -105.828125 C 23.367188 -101.660156 20.367188 -96.40625 17.328125 -90.0625 C 14.285156 -83.71875 11.414062 -77.375 8.71875 -71.03125 C 6.03125 -64.6875 3.773438 -59.296875 1.953125 -54.859375 C 0.128906 -50.429688 -0.953125 -48.046875 -1.296875 -47.703125 C -2.515625 -46.484375 -3.992188 -45.875 -5.734375 -45.875 C -8.859375 -45.875 -10.984375 -47.304688 -12.109375 -50.171875 C -13.242188 -53.046875 -13.550781 -55.867188 -13.03125 -58.640625 C -11.988281 -66.816406 -11.078125 -73.640625 -10.296875 -79.109375 C -9.515625 -84.578125 -8.734375 -89.394531 -7.953125 -93.5625 C -7.171875 -97.738281 -6.300781 -101.867188 -5.34375 -105.953125 C -4.382812 -110.035156 -3.253906 -114.679688 -1.953125 -119.890625 C -0.648438 -125.109375 0.867188 -131.539062 2.609375 -139.1875 C 3.472656 -143.53125 4.6875 -146.394531 6.25 -147.78125 C 7.820312 -149.175781 9.210938 -149.875 10.421875 -149.875 C 12.160156 -149.875 13.769531 -149.175781 15.25 -147.78125 C 16.726562 -146.394531 17.640625 -144.832031 17.984375 -143.09375 C 18.328125 -141.1875 17.804688 -138.710938 16.421875 -135.671875 C 15.035156 -132.628906 14.164062 -130.5 13.8125 -129.28125 C 12.59375 -124.59375 11.332031 -119.6875 10.03125 -114.5625 C 8.726562 -109.4375 7.644531 -104.175781 6.78125 -98.78125 C 8.34375 -102.4375 10.515625 -106.695312 13.296875 -111.5625 C 16.078125 -116.425781 18.859375 -120.078125 21.640625 -122.515625 Z M 21.640625 -122.515625 "/></g></g></g><g fill="#f7f2e8" fill-opacity="1"><g transform="translate(180.807329, 215.454953)"><g><path d="M 8.859375 -60.21875 C 2.773438 -54.300781 -2.609375 -51.34375 -7.296875 -51.34375 C -9.898438 -51.34375 -12.113281 -52.164062 -13.9375 -53.8125 C -15.769531 -55.46875 -17.03125 -57.6875 -17.71875 -60.46875 C -18.070312 -62.382812 -18.160156 -64.773438 -17.984375 -67.640625 C -17.804688 -70.503906 -17.195312 -73.585938 -16.15625 -76.890625 C -14.25 -82.796875 -11.554688 -89.269531 -8.078125 -96.3125 C -4.609375 -103.351562 -0.441406 -109.910156 4.421875 -115.984375 C 9.296875 -122.066406 14.6875 -126.5 20.59375 -129.28125 C 21.976562 -130.15625 23.363281 -130.722656 24.75 -130.984375 C 26.144531 -131.242188 27.453125 -131.375 28.671875 -131.375 C 34.234375 -131.375 38.097656 -129.414062 40.265625 -125.5 C 42.441406 -121.59375 43.878906 -117.898438 44.578125 -114.421875 C 44.578125 -113.734375 44.617188 -113.210938 44.703125 -112.859375 C 44.785156 -112.515625 44.914062 -112.171875 45.09375 -111.828125 C 45.4375 -110.085938 45.867188 -109.257812 46.390625 -109.34375 C 46.910156 -109.425781 47.519531 -108.082031 48.21875 -105.3125 C 48.394531 -104.613281 48.484375 -103.875 48.484375 -103.09375 C 48.484375 -102.3125 48.484375 -101.3125 48.484375 -100.09375 C 48.304688 -96.09375 47.910156 -92.660156 47.296875 -89.796875 C 46.691406 -86.929688 46.300781 -83.976562 46.125 -80.9375 C 45.957031 -77.894531 46.304688 -74.113281 47.171875 -69.59375 L 47.4375 -68.546875 C 47.78125 -67.335938 48.082031 -66.554688 48.34375 -66.203125 C 48.613281 -65.859375 49.179688 -65.6875 50.046875 -65.6875 C 52.648438 -65.6875 55.90625 -66.988281 59.8125 -69.59375 C 63.726562 -72.195312 67.726562 -75.453125 71.8125 -79.359375 C 75.894531 -83.273438 79.628906 -87.226562 83.015625 -91.21875 C 86.410156 -95.21875 88.890625 -98.695312 90.453125 -101.65625 C 90.972656 -103.039062 92.1875 -103.734375 94.09375 -103.734375 C 95.488281 -103.734375 96.835938 -103.253906 98.140625 -102.296875 C 99.441406 -101.347656 100.179688 -100.09375 100.359375 -98.53125 C 100.703125 -97.3125 100.613281 -96.179688 100.09375 -95.140625 C 98.695312 -91.660156 96.347656 -87.617188 93.046875 -83.015625 C 89.753906 -78.410156 85.976562 -73.9375 81.71875 -69.59375 C 77.457031 -65.25 73.066406 -61.46875 68.546875 -58.25 C 64.035156 -55.039062 59.78125 -53.175781 55.78125 -52.65625 C 55.082031 -52.476562 54.425781 -52.390625 53.8125 -52.390625 C 53.207031 -52.390625 52.644531 -52.390625 52.125 -52.390625 C 48.65625 -52.390625 45.3125 -53.390625 42.09375 -55.390625 C 38.882812 -57.390625 36.492188 -60.648438 34.921875 -65.171875 C 34.753906 -65.859375 34.539062 -66.503906 34.28125 -67.109375 C 34.019531 -67.722656 33.800781 -68.378906 33.625 -69.078125 C 32.925781 -72.378906 32.617188 -75.550781 32.703125 -78.59375 C 32.796875 -81.632812 32.84375 -84.195312 32.84375 -86.28125 Z M -3.65625 -68.8125 L 2.078125 -74.28125 C 7.472656 -79.320312 12.601562 -84.707031 17.46875 -90.4375 C 22.332031 -96.175781 27.195312 -101.914062 32.0625 -107.65625 C 32.40625 -108.519531 32.492188 -109.820312 32.328125 -111.5625 C 32.148438 -112.945312 31.800781 -114.332031 31.28125 -115.71875 C 30.757812 -117.113281 30.320312 -117.8125 29.96875 -117.8125 C 29.28125 -117.8125 28.5 -117.46875 27.625 -116.78125 C 20.675781 -112.78125 14.898438 -107.171875 10.296875 -99.953125 C 5.691406 -92.742188 1.996094 -85.144531 -0.78125 -77.15625 C -1.476562 -75.414062 -2.039062 -73.847656 -2.46875 -72.453125 C -2.90625 -71.066406 -3.300781 -69.851562 -3.65625 -68.8125 Z M -3.65625 -68.8125 "/></g></g></g><g fill="#f7f2e8" fill-opacity="1"><g transform="translate(281.939967, 215.454953)"><g><path d="M 24.234375 -49.78125 C 22.503906 -48.21875 20.378906 -46.738281 17.859375 -45.34375 C 15.335938 -43.957031 12.6875 -43.265625 9.90625 -43.265625 C 7.125 -43.265625 4.429688 -44.085938 1.828125 -45.734375 C -0.773438 -47.390625 -2.945312 -50.128906 -4.6875 -53.953125 C -5.5625 -56.390625 -6.257812 -58.910156 -6.78125 -61.515625 C -8 -67.597656 -8.429688 -74.285156 -8.078125 -81.578125 C -7.734375 -88.878906 -7.039062 -95.875 -6 -102.5625 C -4.957031 -109.257812 -4 -114.863281 -3.125 -119.375 C -2.601562 -121.8125 -0.867188 -123.03125 2.078125 -123.03125 C 4.171875 -123.03125 6.300781 -122.289062 8.46875 -120.8125 C 10.644531 -119.332031 11.90625 -117.640625 12.25 -115.734375 C 12.59375 -115.210938 12.59375 -114.515625 12.25 -113.640625 C 11.90625 -112.429688 11.035156 -109.257812 9.640625 -104.125 C 8.253906 -99 7.300781 -93.394531 6.78125 -87.3125 C 6.425781 -82.445312 6.160156 -77.710938 5.984375 -73.109375 C 5.816406 -68.503906 6.082031 -64.640625 6.78125 -61.515625 C 7.125 -59.773438 7.425781 -58.644531 7.6875 -58.125 C 7.945312 -57.601562 8.164062 -57.34375 8.34375 -57.34375 L 8.609375 -57.34375 C 10.171875 -57.34375 11.992188 -58.382812 14.078125 -60.46875 C 16.160156 -62.550781 18.242188 -65.113281 20.328125 -68.15625 C 22.410156 -71.195312 24.273438 -74.148438 25.921875 -77.015625 C 27.578125 -79.890625 28.753906 -82.019531 29.453125 -83.40625 C 31.890625 -87.925781 33.410156 -90.796875 34.015625 -92.015625 C 34.617188 -93.234375 34.75 -94.445312 34.40625 -95.65625 C 34.226562 -96.351562 33.96875 -97.222656 33.625 -98.265625 C 33.28125 -99.304688 32.929688 -100.695312 32.578125 -102.4375 L 32.328125 -104 C 30.234375 -115.125 31.097656 -125.378906 34.921875 -134.765625 C 36.660156 -139.628906 39.703125 -142.0625 44.046875 -142.0625 C 46.828125 -142.0625 49.300781 -140.929688 51.46875 -138.671875 C 53.644531 -136.410156 55.082031 -133.457031 55.78125 -129.8125 C 56.125 -128.769531 56.296875 -127.679688 56.296875 -126.546875 C 56.296875 -125.421875 56.382812 -124.160156 56.5625 -122.765625 C 56.21875 -118.242188 55.566406 -113.640625 54.609375 -108.953125 C 53.648438 -104.265625 52.476562 -99.921875 51.09375 -95.921875 C 51.09375 -95.222656 51.046875 -94.742188 50.953125 -94.484375 C 50.867188 -94.222656 50.828125 -94.007812 50.828125 -93.84375 C 51.003906 -93.664062 51.523438 -92.96875 52.390625 -91.75 C 57.253906 -85.84375 63.507812 -82.890625 71.15625 -82.890625 C 72.894531 -82.890625 74.976562 -83.148438 77.40625 -83.671875 C 79.84375 -84.191406 81.671875 -84.882812 82.890625 -85.75 C 83.234375 -86.269531 83.753906 -86.570312 84.453125 -86.65625 C 85.148438 -86.75 85.671875 -86.796875 86.015625 -86.796875 C 87.753906 -86.796875 89.316406 -86.226562 90.703125 -85.09375 C 92.097656 -83.96875 92.96875 -82.625 93.3125 -81.0625 C 93.488281 -80.195312 93.398438 -79.375 93.046875 -78.59375 C 92.703125 -77.8125 92.359375 -76.984375 92.015625 -76.109375 C 90.097656 -74.546875 87.53125 -73.285156 84.3125 -72.328125 C 81.101562 -71.378906 78.109375 -70.816406 75.328125 -70.640625 L 73.5 -70.640625 C 63.59375 -70.640625 54.382812 -74.375 45.875 -81.84375 L 45.609375 -81.328125 C 43.003906 -76.285156 40.832031 -72.242188 39.09375 -69.203125 C 37.351562 -66.160156 35.441406 -63.25 33.359375 -60.46875 C 31.273438 -57.6875 28.234375 -54.125 24.234375 -49.78125 Z M 24.234375 -49.78125 "/></g></g></g><g fill="#f7f2e8" fill-opacity="1"><g transform="translate(379.944766, 215.454953)"><g><path d="M 65.171875 -101.921875 C 65.515625 -102.441406 66.03125 -102.785156 66.71875 -102.953125 C 67.414062 -103.128906 67.941406 -103.21875 68.296875 -103.21875 C 71.597656 -103.21875 73.679688 -101.476562 74.546875 -98 C 74.890625 -96.789062 74.539062 -95.578125 73.5 -94.359375 C 69.851562 -89.835938 65.03125 -84.96875 59.03125 -79.75 C 53.039062 -74.539062 46.65625 -69.585938 39.875 -64.890625 C 33.101562 -60.203125 26.457031 -56.335938 19.9375 -53.296875 C 13.425781 -50.265625 7.738281 -48.75 2.875 -48.75 C -1.476562 -48.75 -5.4375 -50.222656 -9 -53.171875 C -12.5625 -56.128906 -14.773438 -59.78125 -15.640625 -64.125 C -16.335938 -67.59375 -16.160156 -71.976562 -15.109375 -77.28125 C -14.066406 -82.582031 -12.285156 -88.054688 -9.765625 -93.703125 C -7.253906 -99.347656 -4.21875 -104.601562 -0.65625 -109.46875 C 2.90625 -114.34375 6.726562 -118.34375 10.8125 -121.46875 C 14.894531 -124.59375 19.109375 -126.15625 23.453125 -126.15625 C 25.890625 -126.15625 28.0625 -125.375 29.96875 -123.8125 C 31.882812 -122.25 33.101562 -120.25 33.625 -117.8125 C 34.488281 -113.46875 33.789062 -108.992188 31.53125 -104.390625 C 29.28125 -99.785156 26.195312 -95.394531 22.28125 -91.21875 C 18.375 -87.050781 14.332031 -83.316406 10.15625 -80.015625 C 5.988281 -76.710938 2.429688 -74.109375 -0.515625 -72.203125 C -1.210938 -71.859375 -1.601562 -71.421875 -1.6875 -70.890625 C -1.78125 -70.367188 -1.828125 -69.414062 -1.828125 -68.03125 C -1.648438 -65.769531 -1.210938 -64.203125 -0.515625 -63.328125 C 0.167969 -62.460938 1.5625 -62.03125 3.65625 -62.03125 C 7.125 -62.03125 11.25 -63.160156 16.03125 -65.421875 C 20.8125 -67.679688 25.765625 -70.546875 30.890625 -74.015625 C 36.015625 -77.492188 40.921875 -81.144531 45.609375 -84.96875 C 50.304688 -88.789062 54.4375 -92.222656 58 -95.265625 C 61.5625 -98.304688 63.953125 -100.523438 65.171875 -101.921875 Z M 5.734375 -93.3125 L 13.296875 -101.921875 C 14.679688 -104.003906 15.722656 -105.828125 16.421875 -107.390625 C 15.898438 -106.867188 15.289062 -106.257812 14.59375 -105.5625 C 13.894531 -104.863281 13.203125 -104.082031 12.515625 -103.21875 C 11.472656 -102 10.34375 -100.519531 9.125 -98.78125 C 7.90625 -97.050781 6.773438 -95.226562 5.734375 -93.3125 Z M 5.734375 -93.3125 "/></g></g></g><g fill="#f7f2e8" fill-opacity="1"><g transform="translate(454.490957, 215.454953)"><g><path d="M -5.734375 -16.15625 C -5.734375 -14.25 -5.734375 -13.164062 -5.734375 -12.90625 C -5.734375 -12.644531 -5.644531 -12.644531 -5.46875 -12.90625 C -5.300781 -13.164062 -5.085938 -13.117188 -4.828125 -12.765625 C -4.566406 -12.421875 -4.175781 -11.117188 -3.65625 -8.859375 C -2.957031 -6.253906 -3.171875 -4.082031 -4.296875 -2.34375 C -5.429688 -0.601562 -7.390625 0.265625 -10.171875 0.265625 C -12.953125 0.265625 -15.125 -1.125 -16.6875 -3.90625 C -18.25 -6.6875 -19.113281 -9.378906 -19.28125 -11.984375 C -17.03125 -41.523438 -12.816406 -72.328125 -6.640625 -104.390625 C -0.472656 -136.453125 7.039062 -168.734375 15.90625 -201.234375 C 16.25 -203.140625 17.460938 -204.09375 19.546875 -204.09375 C 21.628906 -204.09375 23.710938 -203.351562 25.796875 -201.875 C 27.890625 -200.394531 29.019531 -198.441406 29.1875 -196.015625 C 28.5 -192.710938 27.894531 -189.101562 27.375 -185.1875 C 26.851562 -181.28125 25.894531 -176.894531 24.5 -172.03125 C 24.5 -171.332031 24.109375 -170.679688 23.328125 -170.078125 C 22.546875 -169.472656 22.066406 -169.253906 21.890625 -169.421875 C 18.941406 -157.953125 15.988281 -145.523438 13.03125 -132.140625 C 10.082031 -118.765625 7.300781 -105.210938 4.6875 -91.484375 C 2.082031 -77.765625 -0.128906 -64.472656 -1.953125 -51.609375 C -3.773438 -38.753906 -5.035156 -26.9375 -5.734375 -16.15625 Z M -5.734375 -16.15625 "/></g></g></g><g fill="#f7f2e8" fill-opacity="1"><g transform="translate(492.806683, 215.454953)"><g/></g></g><g fill="#f7f2e8" fill-opacity="1"><g transform="translate(577.518311, 215.454953)"><g><path d="M 65.171875 -163.6875 C 62.390625 -154.65625 59.648438 -144.535156 56.953125 -133.328125 C 54.253906 -122.117188 51.6875 -110.5625 49.25 -98.65625 C 46.820312 -86.75 44.476562 -75.101562 42.21875 -63.71875 C 39.96875 -52.34375 37.882812 -41.960938 35.96875 -32.578125 L 34.671875 -26.59375 C 35.710938 -26.757812 37.097656 -26.972656 38.828125 -27.234375 C 40.566406 -27.492188 42.828125 -27.710938 45.609375 -27.890625 L 98.78125 -33.109375 C 99.476562 -33.273438 100.21875 -33.359375 101 -33.359375 C 101.78125 -33.359375 102.519531 -33.359375 103.21875 -33.359375 C 105.820312 -33.359375 108.207031 -32.96875 110.375 -32.1875 C 112.550781 -31.40625 113.816406 -29.882812 114.171875 -27.625 C 114.515625 -25.71875 114.035156 -23.9375 112.734375 -22.28125 C 111.429688 -20.632812 109.648438 -19.8125 107.390625 -19.8125 C 106.003906 -19.8125 104.65625 -19.984375 103.34375 -20.328125 C 102.039062 -20.679688 101.046875 -20.859375 100.359375 -20.859375 C 96.179688 -20.859375 91.179688 -20.59375 85.359375 -20.0625 C 79.546875 -19.539062 73.46875 -18.929688 67.125 -18.234375 C 60.78125 -17.546875 54.738281 -16.8125 49 -16.03125 C 43.269531 -15.25 38.40625 -14.597656 34.40625 -14.078125 C 33.1875 -13.898438 32.488281 -13.289062 32.3125 -12.25 C 32.144531 -11.207031 31.890625 -9.644531 31.546875 -7.5625 C 31.546875 -6.863281 31.367188 -5.164062 31.015625 -2.46875 C 30.671875 0.214844 30.148438 3.164062 29.453125 6.375 C 28.753906 9.59375 27.796875 12.375 26.578125 14.71875 C 25.367188 17.070312 23.804688 18.25 21.890625 18.25 L 21.109375 18.25 C 17.804688 17.375 15.8125 15.285156 15.125 11.984375 C 14.425781 8.515625 14.597656 4.347656 15.640625 -0.515625 C 16.679688 -5.378906 17.460938 -8.941406 17.984375 -11.203125 C 16.242188 -11.035156 13.375 -10.5625 9.375 -9.78125 C 5.382812 -9 1.523438 -8.210938 -2.203125 -7.421875 C -5.941406 -6.640625 -8.507812 -6.078125 -9.90625 -5.734375 C -10.601562 -5.554688 -11.253906 -5.335938 -11.859375 -5.078125 C -12.460938 -4.816406 -13.023438 -4.6875 -13.546875 -4.6875 C -15.460938 -4.6875 -17.375 -5.554688 -19.28125 -7.296875 C -19.632812 -7.640625 -19.984375 -8.113281 -20.328125 -8.71875 C -20.679688 -9.332031 -20.859375 -9.726562 -20.859375 -9.90625 L -21.640625 -10.953125 C -22.679688 -12.859375 -22.070312 -14.59375 -19.8125 -16.15625 C -18.414062 -17.03125 -15.847656 -17.859375 -12.109375 -18.640625 C -8.378906 -19.421875 -4.382812 -20.15625 -0.125 -20.84375 C 4.125 -21.539062 7.859375 -22.148438 11.078125 -22.671875 C 14.296875 -23.191406 16.164062 -23.539062 16.6875 -23.71875 C 18.414062 -23.894531 19.539062 -24.285156 20.0625 -24.890625 C 20.59375 -25.503906 21.117188 -26.675781 21.640625 -28.40625 C 23.023438 -34.84375 24.585938 -42.75 26.328125 -52.125 C 28.066406 -61.507812 30.019531 -71.71875 32.1875 -82.75 C 34.363281 -93.789062 36.710938 -105.085938 39.234375 -116.640625 C 41.753906 -128.203125 44.398438 -139.320312 47.171875 -150 C 49.953125 -160.6875 52.90625 -170.375 56.03125 -179.0625 C 59.164062 -187.757812 62.296875 -194.710938 65.421875 -199.921875 C 66.816406 -202.179688 68.726562 -203.3125 71.15625 -203.3125 C 73.070312 -203.3125 74.765625 -202.703125 76.234375 -201.484375 C 77.710938 -200.265625 78.628906 -198.703125 78.984375 -196.796875 C 79.148438 -196.273438 79.234375 -195.707031 79.234375 -195.09375 C 79.234375 -194.488281 79.234375 -194.015625 79.234375 -193.671875 L 71.15625 -166.5625 C 70.289062 -164.644531 68.378906 -163.6875 65.421875 -163.6875 Z M 17.984375 -12.765625 C 18.160156 -12.941406 18.25 -13.117188 18.25 -13.296875 Z M 17.984375 -12.765625 "/></g></g></g><g fill="#f7f2e8" fill-opacity="1"><g transform="translate(670.570771, 215.454953)"><g><path d="M 30.234375 -140.75 C 29.710938 -139.539062 28.625 -137.628906 26.96875 -135.015625 C 25.320312 -132.410156 23.328125 -130.066406 20.984375 -127.984375 C 18.640625 -125.898438 16.078125 -124.859375 13.296875 -124.859375 L 12.515625 -124.859375 C 9.734375 -124.859375 8.082031 -126.160156 7.5625 -128.765625 L 7.296875 -129.8125 C 6.953125 -131.71875 7.34375 -134.144531 8.46875 -137.09375 C 9.601562 -140.050781 11.90625 -143.441406 15.375 -147.265625 C 16.070312 -148.484375 17.460938 -149.09375 19.546875 -149.09375 C 21.460938 -149.09375 23.546875 -148.613281 25.796875 -147.65625 C 28.054688 -146.707031 29.625 -145.363281 30.5 -143.625 C 30.5 -143.445312 30.539062 -143.050781 30.625 -142.4375 C 30.707031 -141.832031 30.578125 -141.269531 30.234375 -140.75 Z M -12.515625 -65.171875 C -13.554688 -69.859375 -13.507812 -75.195312 -12.375 -81.1875 C -11.25 -87.1875 -9.554688 -92.878906 -7.296875 -98.265625 C -5.035156 -103.648438 -2.863281 -107.910156 -0.78125 -111.046875 C -0.0820312 -111.390625 0.609375 -111.734375 1.296875 -112.078125 C 1.992188 -112.429688 2.691406 -112.609375 3.390625 -112.609375 C 5.296875 -112.609375 7.160156 -111.910156 8.984375 -110.515625 C 10.816406 -109.128906 11.90625 -107.476562 12.25 -105.5625 C 12.425781 -103.820312 11.734375 -102 10.171875 -100.09375 C 6.867188 -95.570312 4.390625 -90.007812 2.734375 -83.40625 C 1.085938 -76.800781 0.785156 -71.066406 1.828125 -66.203125 C 2.347656 -63.773438 3.5625 -62.5625 5.46875 -62.5625 C 5.820312 -62.5625 6.78125 -62.820312 8.34375 -63.34375 C 14.25 -65.082031 20.71875 -68.125 27.75 -72.46875 C 34.789062 -76.8125 41.613281 -81.71875 48.21875 -87.1875 C 54.820312 -92.664062 60.296875 -97.75 64.640625 -102.4375 C 64.992188 -102.957031 65.515625 -103.300781 66.203125 -103.46875 C 66.898438 -103.644531 67.421875 -103.734375 67.765625 -103.734375 C 69.328125 -103.734375 70.757812 -103.210938 72.0625 -102.171875 C 73.375 -101.128906 74.113281 -99.914062 74.28125 -98.53125 C 74.632812 -97.132812 74.550781 -96.09375 74.03125 -95.40625 C 71.59375 -91.75 67.851562 -87.570312 62.8125 -82.875 C 57.78125 -78.1875 52.175781 -73.582031 46 -69.0625 C 39.832031 -64.550781 33.835938 -60.554688 28.015625 -57.078125 C 22.191406 -53.609375 17.285156 -51.175781 13.296875 -49.78125 C 12.078125 -49.613281 10.898438 -49.398438 9.765625 -49.140625 C 8.640625 -48.878906 7.554688 -48.75 6.515625 -48.75 C 1.648438 -48.75 -2.515625 -50.265625 -5.984375 -53.296875 C -9.460938 -56.335938 -11.640625 -60.296875 -12.515625 -65.171875 Z M -12.515625 -65.171875 "/></g></g></g><g fill="#f7f2e8" fill-opacity="1"><g transform="translate(745.898936, 215.454953)"><g><path d="M -19.546875 -31.796875 C -18.679688 -39.097656 -17.421875 -47.785156 -15.765625 -57.859375 C -14.117188 -67.941406 -12.164062 -78.671875 -9.90625 -90.046875 C -7.644531 -101.429688 -5.082031 -112.945312 -2.21875 -124.59375 C 0.644531 -136.238281 3.597656 -147.273438 6.640625 -157.703125 C 9.679688 -168.128906 12.8125 -177.46875 16.03125 -185.71875 C 19.25 -193.96875 22.332031 -200.351562 25.28125 -204.875 C 26.675781 -206.957031 28.585938 -208 31.015625 -208 C 32.753906 -208 34.316406 -207.519531 35.703125 -206.5625 C 37.097656 -205.613281 37.96875 -204.179688 38.3125 -202.265625 C 38.3125 -201.921875 38.351562 -201.398438 38.4375 -200.703125 C 38.53125 -200.003906 38.488281 -199.394531 38.3125 -198.875 C 35.882812 -189.320312 33.753906 -182.113281 31.921875 -177.25 C 30.097656 -172.382812 28.625 -169.164062 27.5 -167.59375 C 26.375 -166.03125 25.59375 -165.597656 25.15625 -166.296875 C 24.71875 -166.992188 24.757812 -168.210938 25.28125 -169.953125 C 24.757812 -168.210938 23.671875 -164.601562 22.015625 -159.125 C 20.367188 -153.65625 18.414062 -147.007812 16.15625 -139.1875 C 13.894531 -131.375 11.546875 -122.90625 9.109375 -113.78125 C 6.679688 -104.65625 4.425781 -95.488281 2.34375 -86.28125 C 5.125 -92.53125 9.117188 -98.910156 14.328125 -105.421875 C 19.546875 -111.941406 25.019531 -117.9375 30.75 -123.40625 C 36.488281 -128.882812 41.441406 -133.191406 45.609375 -136.328125 C 46.484375 -136.847656 47.351562 -137.28125 48.21875 -137.625 C 49.09375 -137.96875 49.960938 -138.140625 50.828125 -138.140625 C 54.648438 -138.140625 57.171875 -135.796875 58.390625 -131.109375 C 58.910156 -128.503906 58.648438 -126.203125 57.609375 -124.203125 C 56.566406 -122.203125 54.828125 -121.203125 52.390625 -121.203125 L 52.125 -121.203125 C 50.738281 -121.203125 48.476562 -119.941406 45.34375 -117.421875 C 42.21875 -114.898438 38.742188 -111.640625 34.921875 -107.640625 C 31.097656 -103.648438 27.445312 -99.484375 23.96875 -95.140625 C 20.5 -90.796875 17.765625 -86.753906 15.765625 -83.015625 C 13.765625 -79.285156 12.941406 -76.460938 13.296875 -74.546875 L 14.859375 -74.546875 C 18.160156 -74.546875 22.675781 -75.328125 28.40625 -76.890625 C 34.144531 -78.453125 40.359375 -80.445312 47.046875 -82.875 C 53.734375 -85.3125 60.335938 -87.878906 66.859375 -90.578125 C 73.378906 -93.273438 79.023438 -95.75 83.796875 -98 C 88.578125 -100.257812 91.835938 -102 93.578125 -103.21875 C 94.097656 -103.738281 94.878906 -104 95.921875 -104 C 97.484375 -104 98.957031 -103.429688 100.34375 -102.296875 C 101.738281 -101.171875 102.609375 -99.828125 102.953125 -98.265625 C 103.304688 -96.003906 102.785156 -94.53125 101.390625 -93.84375 C 100.003906 -92.789062 96.960938 -91.046875 92.265625 -88.609375 C 87.578125 -86.179688 81.890625 -83.488281 75.203125 -80.53125 C 68.515625 -77.582031 61.476562 -74.71875 54.09375 -71.9375 C 46.707031 -69.15625 39.582031 -66.851562 32.71875 -65.03125 C 25.851562 -63.207031 19.898438 -62.296875 14.859375 -62.296875 C 11.210938 -62.296875 7.953125 -62.988281 5.078125 -64.375 C 2.210938 -65.769531 0.347656 -68.117188 -0.515625 -71.421875 L -0.515625 -72.71875 C -2.773438 -61.769531 -4.515625 -51.863281 -5.734375 -43 C -6.953125 -34.144531 -7.125 -27.546875 -6.25 -23.203125 L -5.734375 -20.859375 C -3.828125 -20.335938 -2.609375 -19.03125 -2.078125 -16.9375 C -1.734375 -15.207031 -2.171875 -13.472656 -3.390625 -11.734375 C -4.609375 -9.992188 -6.347656 -9.125 -8.609375 -9.125 C -9.992188 -9.125 -11.640625 -9.644531 -13.546875 -10.6875 C -16.328125 -13.289062 -18.15625 -16.59375 -19.03125 -20.59375 C -19.375 -22.5 -19.585938 -24.40625 -19.671875 -26.3125 C -19.765625 -28.226562 -19.722656 -30.054688 -19.546875 -31.796875 Z M -19.546875 -31.796875 "/></g></g></g><g fill="#f7f2e8" fill-opacity="1"><g transform="translate(848.334811, 215.454953)"><g><path d="M 65.171875 -101.921875 C 65.515625 -102.441406 66.03125 -102.785156 66.71875 -102.953125 C 67.414062 -103.128906 67.941406 -103.21875 68.296875 -103.21875 C 71.597656 -103.21875 73.679688 -101.476562 74.546875 -98 C 74.890625 -96.789062 74.539062 -95.578125 73.5 -94.359375 C 69.851562 -89.835938 65.03125 -84.96875 59.03125 -79.75 C 53.039062 -74.539062 46.65625 -69.585938 39.875 -64.890625 C 33.101562 -60.203125 26.457031 -56.335938 19.9375 -53.296875 C 13.425781 -50.265625 7.738281 -48.75 2.875 -48.75 C -1.476562 -48.75 -5.4375 -50.222656 -9 -53.171875 C -12.5625 -56.128906 -14.773438 -59.78125 -15.640625 -64.125 C -16.335938 -67.59375 -16.160156 -71.976562 -15.109375 -77.28125 C -14.066406 -82.582031 -12.285156 -88.054688 -9.765625 -93.703125 C -7.253906 -99.347656 -4.21875 -104.601562 -0.65625 -109.46875 C 2.90625 -114.34375 6.726562 -118.34375 10.8125 -121.46875 C 14.894531 -124.59375 19.109375 -126.15625 23.453125 -126.15625 C 25.890625 -126.15625 28.0625 -125.375 29.96875 -123.8125 C 31.882812 -122.25 33.101562 -120.25 33.625 -117.8125 C 34.488281 -113.46875 33.789062 -108.992188 31.53125 -104.390625 C 29.28125 -99.785156 26.195312 -95.394531 22.28125 -91.21875 C 18.375 -87.050781 14.332031 -83.316406 10.15625 -80.015625 C 5.988281 -76.710938 2.429688 -74.109375 -0.515625 -72.203125 C -1.210938 -71.859375 -1.601562 -71.421875 -1.6875 -70.890625 C -1.78125 -70.367188 -1.828125 -69.414062 -1.828125 -68.03125 C -1.648438 -65.769531 -1.210938 -64.203125 -0.515625 -63.328125 C 0.167969 -62.460938 1.5625 -62.03125 3.65625 -62.03125 C 7.125 -62.03125 11.25 -63.160156 16.03125 -65.421875 C 20.8125 -67.679688 25.765625 -70.546875 30.890625 -74.015625 C 36.015625 -77.492188 40.921875 -81.144531 45.609375 -84.96875 C 50.304688 -88.789062 54.4375 -92.222656 58 -95.265625 C 61.5625 -98.304688 63.953125 -100.523438 65.171875 -101.921875 Z M 5.734375 -93.3125 L 13.296875 -101.921875 C 14.679688 -104.003906 15.722656 -105.828125 16.421875 -107.390625 C 15.898438 -106.867188 15.289062 -106.257812 14.59375 -105.5625 C 13.894531 -104.863281 13.203125 -104.082031 12.515625 -103.21875 C 11.472656 -102 10.34375 -100.519531 9.125 -98.78125 C 7.90625 -97.050781 6.773438 -95.226562 5.734375 -93.3125 Z M 5.734375 -93.3125 "/></g></g></g></g></g></g><g clip-path="url(#182d5e9002)"><g transform="matrix(1, 0, 0, 1, 188, 218)"><g clip-path="url(#939ee2fe7a)"><g clip-path="url(#04f34fb5bf)"><g fill="#d4af37" fill-opacity="1"><g transform="translate(26.753491, 196.473058)"><g><path d="M 44.4375 -85.53125 C 42.363281 -85.375 41.085938 -84.816406 40.609375 -83.859375 C 31.847656 -69.203125 24.160156 -54.304688 17.546875 -39.171875 C 10.941406 -24.046875 5.09375 -8.199219 0 8.359375 C -0.476562 10.109375 -0.71875 11.976562 -0.71875 13.96875 C -0.71875 15.96875 -1.070312 17.644531 -1.78125 19 C -2.5 20.351562 -4.296875 21.03125 -7.171875 21.03125 L -8.84375 21.03125 C -12.664062 21.03125 -14.816406 19.195312 -15.296875 15.53125 L -15.53125 15.046875 C -15.84375 13.453125 -15.835938 11.976562 -15.515625 10.625 C -15.203125 9.269531 -14.96875 8.273438 -14.8125 7.640625 C -12.101562 -2.710938 -8.554688 -13.0625 -4.171875 -23.40625 C 0.199219 -33.757812 4.976562 -43.953125 10.15625 -53.984375 C 15.332031 -64.023438 20.3125 -73.664062 25.09375 -82.90625 C 23.976562 -82.75 22.222656 -82.46875 19.828125 -82.0625 C 17.441406 -81.664062 15.253906 -81.304688 13.265625 -80.984375 C 11.273438 -80.671875 10.28125 -80.4375 10.28125 -80.28125 C 10.59375 -79.164062 9.59375 -78.128906 7.28125 -77.171875 C 4.976562 -76.210938 2.113281 -75.375 -1.3125 -74.65625 C -4.738281 -73.945312 -8.039062 -73.390625 -11.21875 -72.984375 C -14.40625 -72.585938 -16.796875 -72.390625 -18.390625 -72.390625 L -19.109375 -72.390625 C -20.703125 -72.710938 -22.054688 -73.46875 -23.171875 -74.65625 C -24.285156 -75.851562 -25.003906 -77.171875 -25.328125 -78.609375 C -25.804688 -80.359375 -25.488281 -81.628906 -24.375 -82.421875 C -23.257812 -83.222656 -20.46875 -84.257812 -16 -85.53125 C -11.539062 -86.8125 -6.40625 -88.046875 -0.59375 -89.234375 C 5.21875 -90.429688 10.628906 -91.503906 15.640625 -92.453125 C 20.660156 -93.410156 24.367188 -94.050781 26.765625 -94.375 C 29.304688 -94.851562 31.210938 -95.53125 32.484375 -96.40625 C 33.765625 -97.28125 34.960938 -98.515625 36.078125 -100.109375 C 40.222656 -106.484375 45 -113.410156 50.40625 -120.890625 C 55.820312 -128.378906 61.632812 -135.90625 67.84375 -143.46875 C 74.0625 -151.039062 80.472656 -158.128906 87.078125 -164.734375 C 93.691406 -171.347656 100.1875 -177.039062 106.5625 -181.8125 C 107.832031 -182.613281 109.0625 -183.210938 110.25 -183.609375 C 111.445312 -184.003906 112.609375 -184.203125 113.734375 -184.203125 L 114.4375 -184.203125 C 116.507812 -184.203125 118.421875 -183.445312 120.171875 -181.9375 C 121.929688 -180.425781 123.046875 -178.472656 123.515625 -176.078125 L 123.515625 -175.609375 C 123.835938 -174.492188 123.914062 -173.378906 123.75 -172.265625 C 123.59375 -171.148438 123.359375 -169.953125 123.046875 -168.671875 C 120.492188 -158.003906 117.425781 -147.648438 113.84375 -137.609375 C 110.257812 -127.578125 106.875 -117.382812 103.6875 -107.03125 L 102.5 -102.265625 L 105.84375 -102.265625 C 106.800781 -102.265625 107.875 -102.265625 109.0625 -102.265625 C 110.257812 -102.265625 111.578125 -102.179688 113.015625 -102.015625 C 114.128906 -102.015625 115.242188 -101.972656 116.359375 -101.890625 C 117.472656 -101.816406 118.585938 -101.703125 119.703125 -101.546875 C 122.410156 -101.222656 124.476562 -100.421875 125.90625 -99.140625 C 127.34375 -97.867188 128.140625 -96.441406 128.296875 -94.859375 C 128.617188 -93.265625 128.300781 -91.867188 127.34375 -90.671875 C 126.382812 -89.472656 125.109375 -88.875 123.515625 -88.875 C 122.398438 -88.875 121.207031 -89.351562 119.9375 -90.3125 C 118.820312 -91.101562 117.148438 -91.5 114.921875 -91.5 L 113.015625 -91.5 C 111.097656 -91.5 109.101562 -91.421875 107.03125 -91.265625 C 104.96875 -91.109375 102.976562 -91.03125 101.0625 -91.03125 C 99.945312 -91.03125 99.226562 -90.550781 98.90625 -89.59375 C 96.363281 -78.601562 93.976562 -67.648438 91.75 -56.734375 C 89.519531 -45.828125 88.003906 -34.722656 87.203125 -23.421875 L 87.203125 -20.78125 L 88.15625 -16.25 C 89.269531 -12.101562 87.757812 -10.03125 83.625 -10.03125 L 82.671875 -10.03125 C 80.597656 -10.03125 78.921875 -10.785156 77.640625 -12.296875 C 76.367188 -13.816406 75.492188 -15.769531 75.015625 -18.15625 L 74.546875 -19.359375 C 74.066406 -22.066406 73.90625 -25.050781 74.0625 -28.3125 C 74.226562 -31.570312 74.546875 -34.476562 75.015625 -37.03125 C 75.492188 -39.582031 75.734375 -41.175781 75.734375 -41.8125 C 77.484375 -49.769531 79.234375 -57.769531 80.984375 -65.8125 C 82.742188 -73.863281 84.421875 -81.867188 86.015625 -89.828125 Z M 48.984375 -97.484375 L 50.890625 -97.71875 L 87.453125 -101.546875 C 88.242188 -101.546875 88.757812 -101.742188 89 -102.140625 C 89.238281 -102.535156 89.597656 -103.53125 90.078125 -105.125 C 91.984375 -110.863281 94.171875 -117.472656 96.640625 -124.953125 C 99.109375 -132.441406 101.578125 -140.046875 104.046875 -147.765625 C 106.515625 -155.492188 108.546875 -162.460938 110.140625 -168.671875 C 106.640625 -165.960938 102.421875 -162.097656 97.484375 -157.078125 C 92.546875 -152.066406 87.445312 -146.570312 82.1875 -140.59375 C 76.9375 -134.625 71.957031 -128.691406 67.25 -122.796875 C 62.550781 -116.910156 58.53125 -111.695312 55.1875 -107.15625 C 51.84375 -102.613281 49.773438 -99.390625 48.984375 -97.484375 Z M 48.984375 -97.484375 "/></g></g></g></g><g fill="#d4af37" fill-opacity="1"><g transform="translate(168.42935, 196.473058)"><g/></g></g><g fill="#d4af37" fill-opacity="1"><g transform="translate(246.076532, 196.473058)"><g><path d="M 59.734375 -150.046875 C 57.179688 -141.765625 54.671875 -132.484375 52.203125 -122.203125 C 49.734375 -111.929688 47.382812 -101.335938 45.15625 -90.421875 C 42.925781 -79.515625 40.773438 -68.84375 38.703125 -58.40625 C 36.628906 -47.976562 34.71875 -38.460938 32.96875 -29.859375 L 31.78125 -24.375 C 32.726562 -24.53125 34 -24.726562 35.59375 -24.96875 C 37.1875 -25.207031 39.257812 -25.40625 41.8125 -25.5625 L 90.546875 -30.34375 C 91.179688 -30.5 91.859375 -30.578125 92.578125 -30.578125 C 93.296875 -30.578125 93.972656 -30.578125 94.609375 -30.578125 C 97.003906 -30.578125 99.195312 -30.21875 101.1875 -29.5 C 103.175781 -28.789062 104.328125 -27.398438 104.640625 -25.328125 C 104.960938 -23.578125 104.523438 -21.941406 103.328125 -20.421875 C 102.140625 -18.910156 100.507812 -18.15625 98.4375 -18.15625 C 97.164062 -18.15625 95.929688 -18.3125 94.734375 -18.625 C 93.535156 -18.945312 92.617188 -19.109375 91.984375 -19.109375 C 88.160156 -19.109375 83.582031 -18.867188 78.25 -18.390625 C 72.914062 -17.921875 67.335938 -17.363281 61.515625 -16.71875 C 55.703125 -16.082031 50.164062 -15.40625 44.90625 -14.6875 C 39.65625 -13.976562 35.195312 -13.382812 31.53125 -12.90625 C 30.414062 -12.738281 29.78125 -12.175781 29.625 -11.21875 C 29.46875 -10.269531 29.226562 -8.835938 28.90625 -6.921875 C 28.90625 -6.285156 28.742188 -4.734375 28.421875 -2.265625 C 28.109375 0.199219 27.632812 2.910156 27 5.859375 C 26.363281 8.804688 25.488281 11.351562 24.375 13.5 C 23.257812 15.644531 21.820312 16.71875 20.0625 16.71875 L 19.359375 16.71875 C 16.328125 15.925781 14.492188 14.015625 13.859375 10.984375 C 13.222656 7.804688 13.378906 3.988281 14.328125 -0.46875 C 15.285156 -4.9375 16.003906 -8.207031 16.484375 -10.28125 C 14.890625 -10.113281 12.257812 -9.671875 8.59375 -8.953125 C 4.9375 -8.242188 1.394531 -7.53125 -2.03125 -6.8125 C -5.457031 -6.09375 -7.804688 -5.570312 -9.078125 -5.25 C -9.710938 -5.09375 -10.304688 -4.894531 -10.859375 -4.65625 C -11.421875 -4.414062 -11.941406 -4.296875 -12.421875 -4.296875 C -14.171875 -4.296875 -15.925781 -5.09375 -17.6875 -6.6875 C -18 -7.007812 -18.3125 -7.445312 -18.625 -8 C -18.945312 -8.5625 -19.109375 -8.921875 -19.109375 -9.078125 L -19.828125 -10.03125 C -20.785156 -11.78125 -20.226562 -13.375 -18.15625 -14.8125 C -16.882812 -15.601562 -14.535156 -16.359375 -11.109375 -17.078125 C -7.679688 -17.796875 -4.015625 -18.472656 -0.109375 -19.109375 C 3.785156 -19.742188 7.207031 -20.300781 10.15625 -20.78125 C 13.101562 -21.257812 14.816406 -21.578125 15.296875 -21.734375 C 16.890625 -21.898438 17.921875 -22.257812 18.390625 -22.8125 C 18.867188 -23.375 19.347656 -24.453125 19.828125 -26.046875 C 21.097656 -31.929688 22.53125 -39.175781 24.125 -47.78125 C 25.71875 -56.382812 27.507812 -65.742188 29.5 -75.859375 C 31.5 -85.972656 33.648438 -96.328125 35.953125 -106.921875 C 38.265625 -117.515625 40.691406 -127.707031 43.234375 -137.5 C 45.785156 -147.289062 48.492188 -156.164062 51.359375 -164.125 C 54.234375 -172.09375 57.101562 -178.46875 59.96875 -183.25 C 61.238281 -185.320312 62.988281 -186.359375 65.21875 -186.359375 C 66.976562 -186.359375 68.535156 -185.800781 69.890625 -184.6875 C 71.242188 -183.570312 72.078125 -182.140625 72.390625 -180.390625 C 72.546875 -179.910156 72.625 -179.390625 72.625 -178.828125 C 72.625 -178.273438 72.625 -177.835938 72.625 -177.515625 L 65.21875 -152.671875 C 64.425781 -150.921875 62.675781 -150.046875 59.96875 -150.046875 Z M 16.484375 -11.703125 C 16.640625 -11.867188 16.71875 -12.03125 16.71875 -12.1875 Z M 16.484375 -11.703125 "/></g></g></g><g fill="#d4af37" fill-opacity="1"><g transform="translate(331.368934, 196.473058)"><g><path d="M 2.15625 -47.3125 C -1.832031 -48.425781 -4.941406 -50.335938 -7.171875 -53.046875 C -9.398438 -55.753906 -10.910156 -58.9375 -11.703125 -62.59375 C -12.984375 -68.488281 -12.707031 -74.539062 -10.875 -80.75 C -9.039062 -86.96875 -6.25 -92.625 -2.5 -97.71875 C 1.238281 -102.8125 5.414062 -106.554688 10.03125 -108.953125 C 12.425781 -110.378906 14.738281 -109.820312 16.96875 -107.28125 C 16.800781 -108.070312 16.597656 -108.863281 16.359375 -109.65625 C 16.117188 -110.457031 15.921875 -111.175781 15.765625 -111.8125 C 15.128906 -114.519531 15.128906 -117.109375 15.765625 -119.578125 C 16.398438 -122.046875 18.15625 -123.597656 21.03125 -124.234375 C 24.851562 -124.398438 27.519531 -123.085938 29.03125 -120.296875 C 30.539062 -117.503906 31.457031 -114.992188 31.78125 -112.765625 C 32.257812 -110.535156 32.5 -108.898438 32.5 -107.859375 C 32.5 -106.828125 32.65625 -105.4375 32.96875 -103.6875 C 34.082031 -98.75 36.828125 -94.96875 41.203125 -92.34375 C 45.585938 -89.71875 50.566406 -88.40625 56.140625 -88.40625 L 58.0625 -88.40625 C 63.3125 -88.40625 68.40625 -90.394531 73.34375 -94.375 C 74.78125 -94.695312 76.296875 -94.179688 77.890625 -92.828125 C 79.484375 -91.472656 80.4375 -89.914062 80.75 -88.15625 C 81.226562 -86.09375 80.671875 -84.660156 79.078125 -83.859375 C 76.367188 -82.265625 73.222656 -80.867188 69.640625 -79.671875 C 66.054688 -78.484375 62.4375 -77.890625 58.78125 -77.890625 L 55.90625 -77.890625 C 52.238281 -77.890625 48.492188 -78.40625 44.671875 -79.4375 C 40.847656 -80.476562 37.109375 -82.191406 33.453125 -84.578125 C 32.648438 -85.210938 32.128906 -85.410156 31.890625 -85.171875 C 31.648438 -84.929688 31.296875 -83.695312 30.828125 -81.46875 C 30.347656 -78.601562 29.429688 -75.257812 28.078125 -71.4375 C 26.722656 -67.613281 25.046875 -63.867188 23.046875 -60.203125 C 21.054688 -56.546875 18.664062 -53.484375 15.875 -51.015625 C 13.09375 -48.546875 9.875 -47.148438 6.21875 -46.828125 C 5.570312 -46.828125 4.890625 -46.863281 4.171875 -46.9375 C 3.460938 -47.019531 2.789062 -47.144531 2.15625 -47.3125 Z M 0 -63.3125 C 0.957031 -59.96875 2.148438 -58.296875 3.578125 -58.296875 C 5.972656 -58.296875 8.242188 -59.726562 10.390625 -62.59375 C 12.546875 -65.457031 14.414062 -69.078125 16 -73.453125 C 17.59375 -77.835938 18.785156 -82.300781 19.578125 -86.84375 C 20.378906 -91.382812 20.703125 -95.328125 20.546875 -98.671875 L 19.59375 -100.828125 C 19.269531 -99.710938 18.550781 -98.835938 17.4375 -98.203125 C 12.34375 -95.015625 8.398438 -91.304688 5.609375 -87.078125 C 2.828125 -82.859375 1.035156 -78.640625 0.234375 -74.421875 C -0.554688 -70.203125 -0.632812 -66.5 0 -63.3125 Z M 0 -63.3125 "/></g></g></g><g fill="#d4af37" fill-opacity="1"><g transform="translate(412.599844, 196.473058)"><g><path d="M 25.796875 -100.59375 C 21.816406 -100.59375 17.875 -98.597656 13.96875 -94.609375 C 10.070312 -90.628906 7.085938 -86.09375 5.015625 -81 C 3.578125 -77.488281 2.660156 -74.378906 2.265625 -71.671875 C 1.867188 -68.960938 1.832031 -66.734375 2.15625 -64.984375 C 2.46875 -63.390625 3.019531 -62.273438 3.8125 -61.640625 C 4.613281 -61.003906 5.890625 -60.609375 7.640625 -60.453125 L 8.84375 -60.453125 C 10.914062 -60.453125 13.460938 -60.925781 16.484375 -61.875 C 22.054688 -63.632812 27.828125 -66.265625 33.796875 -69.765625 C 39.773438 -73.265625 45.472656 -76.96875 50.890625 -80.875 C 56.304688 -84.78125 60.925781 -88.242188 64.75 -91.265625 C 68.570312 -94.296875 71.117188 -96.128906 72.390625 -96.765625 C 73.191406 -97.242188 74.066406 -97.484375 75.015625 -97.484375 C 76.453125 -97.316406 77.726562 -96.554688 78.84375 -95.203125 C 79.957031 -93.847656 80.59375 -92.535156 80.75 -91.265625 C 81.226562 -89.671875 80.988281 -88.632812 80.03125 -88.15625 C 78.914062 -87.039062 76.164062 -84.691406 71.78125 -81.109375 C 67.40625 -77.523438 62.070312 -73.503906 55.78125 -69.046875 C 49.488281 -64.585938 42.914062 -60.484375 36.0625 -56.734375 C 29.21875 -52.992188 22.769531 -50.488281 16.71875 -49.21875 C 15.125 -48.894531 13.570312 -48.691406 12.0625 -48.609375 C 10.550781 -48.535156 9.160156 -48.5 7.890625 -48.5 C 2.304688 -48.976562 -1.953125 -50.726562 -4.890625 -53.75 C -7.835938 -56.78125 -9.710938 -60.285156 -10.515625 -64.265625 C -11.628906 -68.890625 -11.546875 -73.945312 -10.265625 -79.4375 C -8.992188 -84.9375 -7.085938 -89.835938 -4.546875 -94.140625 C -1.191406 -100.191406 3.148438 -104.890625 8.484375 -108.234375 C 13.816406 -111.578125 18.710938 -113.25 23.171875 -113.25 L 24.375 -113.25 C 25.320312 -113.25 26.035156 -113.171875 26.515625 -113.015625 C 29.222656 -112.535156 31.332031 -111.617188 32.84375 -110.265625 C 34.363281 -108.910156 35.28125 -107.4375 35.59375 -105.84375 C 35.914062 -104.40625 35.757812 -103.128906 35.125 -102.015625 C 34.007812 -100.109375 32.492188 -99.15625 30.578125 -99.15625 L 30.109375 -99.15625 C 28.992188 -99.15625 27.554688 -99.632812 25.796875 -100.59375 Z M 25.796875 -100.59375 "/></g></g></g><g fill="#d4af37" fill-opacity="1"><g transform="translate(493.830705, 196.473058)"><g><path d="M 8.125 -55.1875 C 2.550781 -49.769531 -2.382812 -47.0625 -6.6875 -47.0625 C -9.082031 -47.0625 -11.113281 -47.816406 -12.78125 -49.328125 C -14.457031 -50.847656 -15.613281 -52.882812 -16.25 -55.4375 C -16.5625 -57.1875 -16.640625 -59.375 -16.484375 -62 C -16.328125 -64.625 -15.769531 -67.453125 -14.8125 -70.484375 C -13.0625 -75.898438 -10.59375 -81.832031 -7.40625 -88.28125 C -4.21875 -94.726562 -0.394531 -100.738281 4.0625 -106.3125 C 8.519531 -111.894531 13.457031 -115.957031 18.875 -118.5 C 20.144531 -119.300781 21.414062 -119.820312 22.6875 -120.0625 C 23.96875 -120.300781 25.164062 -120.421875 26.28125 -120.421875 C 31.375 -120.421875 34.914062 -118.628906 36.90625 -115.046875 C 38.90625 -111.460938 40.222656 -108.078125 40.859375 -104.890625 C 40.859375 -104.253906 40.894531 -103.773438 40.96875 -103.453125 C 41.050781 -103.128906 41.171875 -102.8125 41.328125 -102.5 C 41.648438 -100.90625 42.050781 -100.144531 42.53125 -100.21875 C 43.007812 -100.300781 43.566406 -99.070312 44.203125 -96.53125 C 44.359375 -95.882812 44.4375 -95.203125 44.4375 -94.484375 C 44.4375 -93.773438 44.4375 -92.863281 44.4375 -91.75 C 44.28125 -88.082031 43.921875 -84.929688 43.359375 -82.296875 C 42.804688 -79.671875 42.445312 -76.960938 42.28125 -74.171875 C 42.125 -71.390625 42.445312 -67.929688 43.25 -63.796875 L 43.484375 -62.84375 C 43.804688 -61.71875 44.082031 -60.992188 44.3125 -60.671875 C 44.550781 -60.359375 45.070312 -60.203125 45.875 -60.203125 C 48.257812 -60.203125 51.242188 -61.394531 54.828125 -63.78125 C 58.410156 -66.175781 62.070312 -69.164062 65.8125 -72.75 C 69.5625 -76.332031 72.988281 -79.957031 76.09375 -83.625 C 79.195312 -87.289062 81.46875 -90.472656 82.90625 -93.171875 C 83.382812 -94.453125 84.5 -95.09375 86.25 -95.09375 C 87.519531 -95.09375 88.753906 -94.65625 89.953125 -93.78125 C 91.148438 -92.90625 91.828125 -91.75 91.984375 -90.3125 C 92.304688 -89.195312 92.226562 -88.160156 91.75 -87.203125 C 90.46875 -84.015625 88.3125 -80.3125 85.28125 -76.09375 C 82.257812 -71.875 78.796875 -67.769531 74.890625 -63.78125 C 70.992188 -59.800781 66.972656 -56.335938 62.828125 -53.390625 C 58.691406 -50.453125 54.789062 -48.742188 51.125 -48.265625 C 50.488281 -48.097656 49.890625 -48.015625 49.328125 -48.015625 C 48.773438 -48.015625 48.257812 -48.015625 47.78125 -48.015625 C 44.59375 -48.015625 41.523438 -48.929688 38.578125 -50.765625 C 35.640625 -52.597656 33.453125 -55.585938 32.015625 -59.734375 C 31.859375 -60.367188 31.660156 -60.960938 31.421875 -61.515625 C 31.179688 -62.078125 30.984375 -62.675781 30.828125 -63.3125 C 30.179688 -66.34375 29.898438 -69.25 29.984375 -72.03125 C 30.066406 -74.820312 30.109375 -77.171875 30.109375 -79.078125 Z M -3.34375 -63.078125 L 1.90625 -68.09375 C 6.84375 -72.707031 11.539062 -77.644531 16 -82.90625 C 20.46875 -88.164062 24.929688 -93.421875 29.390625 -98.671875 C 29.703125 -99.472656 29.78125 -100.671875 29.625 -102.265625 C 29.46875 -103.535156 29.148438 -104.804688 28.671875 -106.078125 C 28.191406 -107.359375 27.789062 -108 27.46875 -108 C 26.832031 -108 26.117188 -107.675781 25.328125 -107.03125 C 18.953125 -103.375 13.65625 -98.238281 9.4375 -91.625 C 5.21875 -85.019531 1.832031 -78.050781 -0.71875 -70.71875 C -1.351562 -69.125 -1.867188 -67.691406 -2.265625 -66.421875 C -2.660156 -65.148438 -3.019531 -64.035156 -3.34375 -63.078125 Z M -3.34375 -63.078125 "/></g></g></g><g fill="#d4af37" fill-opacity="1"><g transform="translate(586.529393, 196.473058)"><g><path d="M -5.25 -14.8125 C -5.25 -13.0625 -5.25 -12.066406 -5.25 -11.828125 C -5.25 -11.585938 -5.171875 -11.585938 -5.015625 -11.828125 C -4.859375 -12.066406 -4.660156 -12.023438 -4.421875 -11.703125 C -4.179688 -11.390625 -3.820312 -10.195312 -3.34375 -8.125 C -2.707031 -5.738281 -2.90625 -3.75 -3.9375 -2.15625 C -4.976562 -0.5625 -6.769531 0.234375 -9.3125 0.234375 C -11.863281 0.234375 -13.851562 -1.035156 -15.28125 -3.578125 C -16.71875 -6.128906 -17.519531 -8.597656 -17.6875 -10.984375 C -15.613281 -38.066406 -11.75 -66.300781 -6.09375 -95.6875 C -0.4375 -125.070312 6.453125 -154.660156 14.578125 -184.453125 C 14.890625 -186.203125 16 -187.078125 17.90625 -187.078125 C 19.820312 -187.078125 21.734375 -186.398438 23.640625 -185.046875 C 25.554688 -183.691406 26.597656 -181.898438 26.765625 -179.671875 C 26.117188 -176.640625 25.554688 -173.332031 25.078125 -169.75 C 24.609375 -166.164062 23.734375 -162.144531 22.453125 -157.6875 C 22.453125 -157.050781 22.09375 -156.453125 21.375 -155.890625 C 20.664062 -155.335938 20.226562 -155.140625 20.0625 -155.296875 C 17.351562 -144.785156 14.644531 -133.394531 11.9375 -121.125 C 9.238281 -108.863281 6.691406 -96.441406 4.296875 -83.859375 C 1.910156 -71.273438 -0.113281 -59.085938 -1.78125 -47.296875 C -3.457031 -35.515625 -4.613281 -24.6875 -5.25 -14.8125 Z M -5.25 -14.8125 "/></g></g></g></g></g></g></g></g></svg>